<svg xmlns="http://www.w3.org/2000/svg" width="1200" height="650" viewBox="0 0 1200 650">
<style>.title{font:700 35px Arial;fill:#172033}.sub{font:18px Arial;fill:#60708a}.metric{font:700 30px Arial;fill:#163a70}
.label{font:16px Arial;fill:#475569}.small{font:15px Arial;fill:#334155}.panel{fill:#fff;stroke:#dbe4f0;stroke-width:1}</style>
<rect width="1200" height="650" fill="#f4f7fb"/><text x="55" y="65" class="title">Baltic Commerce Intelligence</text>
<text x="55" y="95" class="sub">Decision dashboard preview | reproducible synthetic data</text>
<rect class="panel" x="55" y="125" width="250" height="115" rx="12"/><text x="75" y="160" class="label">Eligible prospects</text><text x="75" y="205" class="metric">6,000</text>
<rect class="panel" x="325" y="125" width="250" height="115" rx="12"/><text x="345" y="160" class="label">Conversion rate</text><text x="345" y="205" class="metric">30.6%</text>
<rect class="panel" x="595" y="125" width="250" height="115" rx="12"/><text x="615" y="160" class="label">Net revenue</text><text x="615" y="205" class="metric">EUR 143,711</text>
<rect class="panel" x="865" y="125" width="280" height="115" rx="12"/><text x="885" y="160" class="label">Contribution margin</text><text x="885" y="205" class="metric">EUR -1,028</text>
<rect class="panel" x="55" y="270" width="650" height="335" rx="12"/><text x="75" y="305" class="label">Contribution margin by channel</text><text x="75" y="330" class="small">CRM</text><rect x="230" y="312" width="194" height="24" rx="4" fill="#2563eb"/><text x="580" y="330" class="small">EUR 3,496</text><text x="75" y="372" class="small">Organic Search</text><rect x="230" y="354" width="156" height="24" rx="4" fill="#2563eb"/><text x="580" y="372" class="small">EUR 2,808</text><text x="75" y="414" class="small">Affiliate</text><rect x="230" y="396" width="18" height="24" rx="4" fill="#dc2626"/><text x="580" y="414" class="small">EUR -323</text><text x="75" y="456" class="small">Paid Search</text><rect x="230" y="438" width="169" height="24" rx="4" fill="#dc2626"/><text x="580" y="456" class="small">EUR -3,044</text><text x="75" y="498" class="small">Paid Social</text><rect x="230" y="480" width="220" height="24" rx="4" fill="#dc2626"/><text x="580" y="498" class="small">EUR -3,966</text>
<rect class="panel" x="735" y="270" width="410" height="335" rx="12"/><text x="760" y="310" class="label">Experiment decision</text>
<text x="760" y="360" class="metric">+3.76 pp</text><text x="760" y="390" class="small">conversion lift (p=0.0016)</text>
<text x="760" y="455" class="metric">EUR -1.08</text><text x="760" y="485" class="small">margin lift per eligible prospect</text>
<text x="760" y="550" class="small">Recommendation: redesign treatment</text></svg>